<svg height="211px" width="211px" version="1.1" id="Layer_1" xmlns="http://www.w3.org/2000/svg" xmlns:xlink="http://www.w3.org/1999/xlink" viewBox="0 0 512.02 512.02" xml:space="preserve" fill="#000000" stroke="#000000" stroke-width="6.144191999999999"><g id="SVGRepo_bgCarrier" stroke-width="0"><path transform="translate(0, 0), scale(16.000625)" d="M16,26.61873882165865C18.286784748668317,26.870737960086444,19.82162103268299,30.039114900345087,22.0958288437879,29.691455750573642C24.12705500195347,29.38094131310969,24.65014026683708,26.55169545874519,26.081644410234773,25.077553400148105C27.5682479581931,23.54667077950577,30.384818187166037,22.893521416341763,30.74036777490262,20.789435819782682C31.116572853661125,18.563114330824593,28.62060095970276,16.870374364325016,27.825604090730558,14.757078925489111C27.227758171567213,13.167858761983371,27.31579045843921,11.41607675515659,26.629904242118194,9.86282192435312C25.90360627066721,8.218050815217719,25.392125874170773,6.004840757706643,23.696595610921495,5.406544951949872C21.818798349515784,4.743933231055207,19.917040664973584,6.461019429948246,17.955140224946476,6.801788429464359C16.672729379484824,7.024534625887325,15.3415564254616,7.471645359678895,14.102502233716482,7.072974876074438C11.413262183390712,6.207701477594711,9.490542825340382,2.87219916504805,6.681752186873451,3.174532179542563C4.499716079365303,3.4094024988479865,3.744426196393633,6.390262973829493,2.669455902414292,8.303606776814705C1.6016393101610218,10.204217678302411,-0.019049286857003467,12.220207790429312,0.397386416812493,14.360099231193209C0.8417204252189207,16.64334856128391,3.773064459911328,17.56535788192821,4.870926202243167,19.616055277720744C5.739712363992925,21.23886209455789,5.075497203397254,23.3934694553648,6.064592554110597,24.945881046025683C7.080185273224949,26.53988096464511,8.610550015872146,28.09697709848824,10.47435901477633,28.410792852204665C12.404899920713143,28.73584448025944,14.054065000976646,26.40430064881534,16,26.61873882165865" fill="#45b4d9" strokewidth="0"></path></g><g id="SVGRepo_tracerCarrier" stroke-linecap="round" stroke-linejoin="round"></g><g id="SVGRepo_iconCarrier"> <polygon points="145.544,151.36 105.184,31.92 0.68,31.92 0.68,0 128.096,0 175.784,141.136 "></polygon> <polygon style="fill:#eed21b;" points="68.128,124.56 511.336,124.56 426.856,361.584 141.936,361.584 "></polygon> <circle cx="377.128" cy="450.56" r="61.456"></circle> <circle cx="191.752" cy="450.56" r="61.456"></circle> <polygon style="fill:#f52100;" points="325.28,52.496 451.744,180.664 325.28,308.816 203.936,308.816 330.608,180.664 203.936,52.496 "></polygon> </g></svg>